<?xml version="1.0" encoding="UTF-8" standalone="no"?>
<svg
   height="96"
   width="96"
   version="1.1"
   id="svg83"
   sodipodi:docname="jargonaut-outline.svg"
   inkscape:version="1.1.2 (0a00cf5339, 2022-02-04)"
   xmlns:inkscape="http://www.inkscape.org/namespaces/inkscape"
   xmlns:sodipodi="http://sodipodi.sourceforge.net/DTD/sodipodi-0.dtd"
   xmlns:xlink="http://www.w3.org/1999/xlink"
   xmlns="http://www.w3.org/2000/svg"
   xmlns:svg="http://www.w3.org/2000/svg">
  <sodipodi:namedview
     id="namedview85"
     pagecolor="#ffffff"
     bordercolor="#666666"
     borderopacity="1.0"
     inkscape:pageshadow="2"
     inkscape:pageopacity="0.0"
     inkscape:pagecheckerboard="0"
     showgrid="true"
     inkscape:zoom="4.8444161"
     inkscape:cx="47.890188"
     inkscape:cy="46.032379"
     inkscape:window-width="2560"
     inkscape:window-height="1348"
     inkscape:window-x="0"
     inkscape:window-y="0"
     inkscape:window-maximized="1"
     inkscape:current-layer="svg83">
    <inkscape:grid
       type="xygrid"
       id="grid29995" />
  </sodipodi:namedview>
  <defs
     id="defs49">
    <linearGradient
       id="a"
       stop-color="#fff">
      <stop
         offset="0"
         id="stop2" />
      <stop
         stop-opacity="0"
         offset="1"
         id="stop4" />
    </linearGradient>
    <filter
       id="j"
       height="1.3915758"
       width="1.3915758"
       color-interpolation-filters="sRGB"
       y="-0.19578789"
       x="-0.19578789">
      <feGaussianBlur
         stdDeviation="5.28"
         id="feGaussianBlur7" />
    </filter>
    <linearGradient
       id="t"
       y2="138.66"
       xlink:href="#a"
       gradientUnits="userSpaceOnUse"
       x2="48"
       y1="20.221"
       x1="48" />
    <clipPath
       id="g">
      <rect
         rx="6"
         ry="6"
         height="84"
         width="84"
         y="6"
         x="6"
         fill="#fff"
         id="rect11" />
    </clipPath>
    <linearGradient
       id="e"
       y2="5.4252"
       gradientUnits="userSpaceOnUse"
       x2="58.65"
       gradientTransform="matrix(1.0172,0,0,1.0172,-1.1034,-1.1034)"
       y1="122"
       x1="58.65">
      <stop
         stop-color="#e4b31e"
         offset="0"
         id="stop14" />
      <stop
         stop-color="#ffef64"
         offset="1"
         id="stop16" />
    </linearGradient>
    <clipPath
       id="i">
      <path
         d="m62 6c-3.324 0-6 2.676-6 6v0.53125c0-3.6103 2.921-6.531 6.531-6.531h-0.531zm71.469 0c3.61 0 6.53 2.9207 6.53 6.531v-0.531c0-3.324-2.676-6-6-6h-0.53125zm6.53 6.531c0 36.735-3.5426 60.105-7.8438 69.938-10.82 5.031-35.685 7.531-69.634 7.531h71.469c3.324 0 6-2.676 6-6v-71.469zm-77.47 77.469c-3.61-0.006-6.531-2.921-6.531-6.531v0.531c0 3.324 2.676 6 6 6h0.53125z"
         fill="url(#u)"
         id="path19" />
    </clipPath>
    <linearGradient
       id="u"
       y2="5.9877"
       xlink:href="#e"
       gradientUnits="userSpaceOnUse"
       x2="48"
       gradientTransform="translate(50)"
       y1="90"
       x1="48" />
    <filter
       id="l"
       color-interpolation-filters="sRGB"
       x="-0.036000547"
       y="-0.03599967"
       width="1.0720011"
       height="1.0719993">
      <feGaussianBlur
         stdDeviation="1.2600071"
         id="feGaussianBlur23" />
    </filter>
    <linearGradient
       id="d"
       y2="7.0165"
       gradientUnits="userSpaceOnUse"
       x2="45.448"
       gradientTransform="matrix(1.0059 0 0 .99417 100 0)"
       y1="92.54"
       x1="45.448">
      <stop
         offset="0"
         id="stop26" />
      <stop
         stop-opacity=".58824"
         offset="1"
         id="stop28" />
    </linearGradient>
    <linearGradient
       id="s"
       y2="63.893"
       xlink:href="#a"
       gradientUnits="userSpaceOnUse"
       x2="36.357"
       y1="6"
       x1="36.357" />
    <linearGradient
       id="r"
       y2="59.821"
       xlink:href="#a"
       gradientUnits="userSpaceOnUse"
       x2="59.612"
       y1="82.29"
       x1="82.08" />
    <linearGradient
       id="q"
       y2="112.41"
       gradientUnits="userSpaceOnUse"
       x2="110.99"
       gradientTransform="matrix(0.71186,0,0,0.71186,154.76361,-56.984968)"
       y1="44.471"
       x1="59.388">
      <stop
         stop-color="#e7ba26"
         stop-opacity="0"
         offset="0"
         id="stop33" />
      <stop
         stop-color="#e9ab2c"
         stop-opacity=".83137"
         offset=".48412"
         id="stop35" />
      <stop
         stop-color="#eaa82e"
         offset=".69663"
         id="stop37" />
      <stop
         stop-color="#ebba3f"
         offset=".84266"
         id="stop39" />
      <stop
         stop-color="#f3e38c"
         offset="1"
         id="stop41" />
    </linearGradient>
    <radialGradient
       id="h"
       xlink:href="#a"
       gradientUnits="userSpaceOnUse"
       cy="90.172"
       cx="48"
       gradientTransform="matrix(1.1573 0 0 .99591 -7.551 .19713)"
       r="42" />
    <linearGradient
       id="p"
       y2="6"
       xlink:href="#e"
       gradientUnits="userSpaceOnUse"
       x2="48"
       y1="90"
       x1="48" />
    <linearGradient
       id="o"
       y2="6"
       xlink:href="#d"
       gradientUnits="userSpaceOnUse"
       x2="32.251"
       gradientTransform="translate(0,1)"
       y1="90"
       x1="32.251" />
    <linearGradient
       id="n"
       y2="6"
       xlink:href="#d"
       gradientUnits="userSpaceOnUse"
       x2="32.251"
       gradientTransform="matrix(1.0238 0 0 1.0119 -1.1429 .929)"
       y1="90"
       x1="32.251" />
    <linearGradient
       id="m"
       y2="90.239"
       xlink:href="#d"
       gradientUnits="userSpaceOnUse"
       x2="32.251"
       gradientTransform="matrix(1.0238,0,0,-1.0119,-1.1429,98.071)"
       y1="6.1317"
       x1="32.251" />
    <linearGradient
       x1="61.294735"
       y1="121.32806"
       x2="117.36092"
       y2="18.868103"
       id="linearGradient3593"
       xlink:href="#a"
       gradientUnits="userSpaceOnUse" />
    <filter
       color-interpolation-filters="sRGB"
       id="filter3963"
       x="-0.032441446"
       y="-0.019886411"
       width="1.0648829"
       height="1.0397728">
      <feGaussianBlur
         stdDeviation="0.91605611"
         id="feGaussianBlur3965" />
    </filter>
    <linearGradient
       x1="61.294735"
       y1="121.32806"
       x2="104.6299"
       y2="41.346642"
       id="linearGradient3595"
       xlink:href="#a"
       gradientUnits="userSpaceOnUse" />
    <filter
       color-interpolation-filters="sRGB"
       id="filter181"
       x="-0.032441445"
       y="-0.019886412"
       width="1.0648829"
       height="1.0397727">
      <feGaussianBlur
         stdDeviation="0.91605611"
         id="feGaussianBlur179" />
    </filter>
    <linearGradient
       x1="136.41356"
       y1="115.49392"
       x2="149.52968"
       y2="115.49392"
       id="linearGradient3522"
       xlink:href="#linearGradient3485"
       gradientUnits="userSpaceOnUse" />
    <linearGradient
       id="linearGradient3485">
      <stop
         id="stop3487"
         style="stop-color:#e6605b;stop-opacity:1"
         offset="0" />
      <stop
         id="stop3489"
         style="stop-color:#f08682;stop-opacity:1"
         offset="1" />
    </linearGradient>
    <filter
       x="-0.42857144"
       y="-0.16645933"
       width="1.8571429"
       height="1.3329187"
       color-interpolation-filters="sRGB"
       id="filter3495">
      <feGaussianBlur
         stdDeviation="0.55242721"
         id="feGaussianBlur3497" />
    </filter>
    <filter
       x="-0.18344348"
       y="-0.17668342"
       width="1.366887"
       height="1.3533668"
       color-interpolation-filters="sRGB"
       id="filter3509">
      <feGaussianBlur
         stdDeviation="0.65925"
         id="feGaussianBlur3511" />
    </filter>
    <linearGradient
       x1="137.40625"
       y1="116.46875"
       x2="148.53125"
       y2="116.46875"
       id="linearGradient3524"
       xlink:href="#linearGradient3339"
       gradientUnits="userSpaceOnUse"
       gradientTransform="matrix(1.0893815,0,0,1,-13.275943,0)" />
    <linearGradient
       id="linearGradient3339">
      <stop
         id="stop3341"
         style="stop-color:#000000;stop-opacity:1"
         offset="0" />
      <stop
         id="stop3347"
         style="stop-color:#000000;stop-opacity:0.49803922"
         offset="0.69999999" />
      <stop
         id="stop3343"
         style="stop-color:#000000;stop-opacity:0"
         offset="1" />
    </linearGradient>
    <linearGradient
       x1="136"
       y1="60"
       x2="150"
       y2="60"
       id="linearGradient3526"
       xlink:href="#linearGradient3278"
       gradientUnits="userSpaceOnUse"
       gradientTransform="translate(-23.73343)" />
    <linearGradient
       id="linearGradient3278">
      <stop
         id="stop3280"
         style="stop-color:#945a00;stop-opacity:1"
         offset="0" />
      <stop
         id="stop3290"
         style="stop-color:#e28e0a;stop-opacity:1"
         offset="0.25" />
      <stop
         id="stop3286"
         style="stop-color:#ffba14;stop-opacity:1"
         offset="0.30000001" />
      <stop
         id="stop3288"
         style="stop-color:#f3ac00;stop-opacity:1"
         offset="0.69999999" />
      <stop
         id="stop3292"
         style="stop-color:#ffd314;stop-opacity:1"
         offset="0.75" />
      <stop
         id="stop3282"
         style="stop-color:#ffed94;stop-opacity:1"
         offset="1" />
    </linearGradient>
    <linearGradient
       x1="143"
       y1="2.4000001e-06"
       x2="143"
       y2="120.01752"
       id="linearGradient3528"
       xlink:href="#linearGradient3254"
       gradientUnits="userSpaceOnUse"
       gradientTransform="translate(-23.73343)" />
    <linearGradient
       id="linearGradient3254">
      <stop
         id="stop3256"
         style="stop-color:#000000;stop-opacity:1"
         offset="0" />
      <stop
         id="stop3266"
         style="stop-color:#000000;stop-opacity:1"
         offset="0.06588447" />
      <stop
         id="stop3264"
         style="stop-color:#ad5f1b;stop-opacity:1"
         offset="0.07" />
      <stop
         id="stop3268"
         style="stop-color:#ad601a;stop-opacity:1"
         offset="0.1913653" />
      <stop
         id="stop3262"
         style="stop-color:#785800;stop-opacity:1"
         offset="0.20983393" />
      <stop
         id="stop3258"
         style="stop-color:#785700;stop-opacity:1"
         offset="1" />
    </linearGradient>
    <linearGradient
       x1="141.25002"
       y1="4.9218717"
       x2="144.81252"
       y2="4.9218717"
       id="linearGradient3530"
       xlink:href="#linearGradient3394"
       gradientUnits="userSpaceOnUse"
       gradientTransform="translate(-23.73343)" />
    <linearGradient
       id="linearGradient3394">
      <stop
         id="stop3396"
         style="stop-color:#000000;stop-opacity:1"
         offset="0" />
      <stop
         id="stop3402"
         style="stop-color:#7d7d7d;stop-opacity:1"
         offset="0.5" />
      <stop
         id="stop3398"
         style="stop-color:#000000;stop-opacity:1"
         offset="1" />
    </linearGradient>
    <linearGradient
       x1="136.98804"
       y1="17.043356"
       x2="148.99513"
       y2="17.043356"
       id="linearGradient3532"
       xlink:href="#linearGradient3308"
       gradientUnits="userSpaceOnUse"
       gradientTransform="translate(-23.73343)" />
    <linearGradient
       id="linearGradient3308">
      <stop
         id="stop3310"
         style="stop-color:#da8539;stop-opacity:1"
         offset="0" />
      <stop
         id="stop3312"
         style="stop-color:#fadfc7;stop-opacity:1"
         offset="1" />
    </linearGradient>
    <linearGradient
       x1="146.10596"
       y1="118.94019"
       x2="146.07562"
       y2="66"
       id="linearGradient3534"
       xlink:href="#linearGradient5452"
       gradientUnits="userSpaceOnUse"
       gradientTransform="matrix(1,0,0,1.2653524,-23.73343,-54.364173)" />
    <linearGradient
       id="linearGradient5452">
      <stop
         id="stop5454"
         style="stop-color:#ffffff;stop-opacity:1"
         offset="0" />
      <stop
         id="stop5456"
         style="stop-color:#ffffff;stop-opacity:0"
         offset="1" />
    </linearGradient>
    <linearGradient
       x1="146.10596"
       y1="118.94019"
       x2="146.07562"
       y2="66"
       id="linearGradient3536"
       xlink:href="#linearGradient5452"
       gradientUnits="userSpaceOnUse"
       gradientTransform="matrix(1,0,0,1.2653524,-29.85843,-54.364173)" />
    <filter
       x="-0.37166678"
       y="-0.099111121"
       width="1.7433336"
       height="1.1982222"
       color-interpolation-filters="sRGB"
       id="filter3382">
      <feGaussianBlur
         stdDeviation="0.73914765"
         id="feGaussianBlur3384" />
    </filter>
    <filter
       x="-0.60979596"
       y="-0.1494"
       width="2.2195919"
       height="1.2988"
       color-interpolation-filters="sRGB"
       id="filter3390">
      <feGaussianBlur
         stdDeviation="0.77812506"
         id="feGaussianBlur3392" />
    </filter>
    <linearGradient
       x1="136"
       y1="106"
       x2="150"
       y2="106"
       id="linearGradient3538"
       xlink:href="#linearGradient3401"
       gradientUnits="userSpaceOnUse" />
    <linearGradient
       id="linearGradient3401">
      <stop
         id="stop3403"
         style="stop-color:#404040;stop-opacity:1"
         offset="0" />
      <stop
         id="stop3447"
         style="stop-color:#808080;stop-opacity:1"
         offset="0.2" />
      <stop
         id="stop3410"
         style="stop-color:#efefef;stop-opacity:1"
         offset="0.69999999" />
      <stop
         id="stop3405"
         style="stop-color:#dcdcdc;stop-opacity:1"
         offset="1" />
    </linearGradient>
    <linearGradient
       x1="136"
       y1="106"
       x2="150"
       y2="106"
       id="linearGradient3540"
       xlink:href="#linearGradient3461"
       gradientUnits="userSpaceOnUse" />
    <linearGradient
       id="linearGradient3461">
      <stop
         id="stop3463"
         style="stop-color:#444542;stop-opacity:1"
         offset="0" />
      <stop
         id="stop3465"
         style="stop-color:#71746e;stop-opacity:1"
         offset="1" />
    </linearGradient>
    <linearGradient
       x1="142.95775"
       y1="98.950562"
       x2="148.95775"
       y2="98.950562"
       id="linearGradient3542"
       xlink:href="#linearGradient3339"
       gradientUnits="userSpaceOnUse"
       gradientTransform="translate(0.04225159,1.5494389)"
       spreadMethod="reflect" />
    <linearGradient
       x1="142.95775"
       y1="98.950562"
       x2="148.95775"
       y2="98.950562"
       id="linearGradient3544"
       xlink:href="#linearGradient3355"
       gradientUnits="userSpaceOnUse"
       gradientTransform="translate(0.04225159,2.5494389)"
       spreadMethod="reflect" />
    <linearGradient
       id="linearGradient3355">
      <stop
         id="stop3357"
         style="stop-color:#ffffff;stop-opacity:1"
         offset="0" />
      <stop
         id="stop3359"
         style="stop-color:#ffffff;stop-opacity:0.49803922"
         offset="0.69999999" />
      <stop
         id="stop3361"
         style="stop-color:#ffffff;stop-opacity:0"
         offset="1" />
    </linearGradient>
    <linearGradient
       x1="142.95775"
       y1="98.950562"
       x2="148.95775"
       y2="98.950562"
       id="linearGradient3546"
       xlink:href="#linearGradient3339"
       gradientUnits="userSpaceOnUse"
       gradientTransform="translate(0.04225159,3.5494389)"
       spreadMethod="reflect" />
    <linearGradient
       x1="142.95775"
       y1="98.950562"
       x2="148.95775"
       y2="98.950562"
       id="linearGradient3548"
       xlink:href="#linearGradient3355"
       gradientUnits="userSpaceOnUse"
       gradientTransform="translate(0.04225159,4.5494389)"
       spreadMethod="reflect" />
    <linearGradient
       x1="142.95775"
       y1="98.950562"
       x2="148.95775"
       y2="98.950562"
       id="linearGradient3550"
       xlink:href="#linearGradient3339"
       gradientUnits="userSpaceOnUse"
       gradientTransform="translate(0.04225159,9.5494389)"
       spreadMethod="reflect" />
    <linearGradient
       x1="142.95775"
       y1="98.950562"
       x2="148.95775"
       y2="98.950562"
       id="linearGradient3552"
       xlink:href="#linearGradient3355"
       gradientUnits="userSpaceOnUse"
       gradientTransform="translate(0.04225159,10.549439)"
       spreadMethod="reflect" />
    <linearGradient
       x1="142.95775"
       y1="98.950562"
       x2="148.95775"
       y2="98.950562"
       id="linearGradient3554"
       xlink:href="#linearGradient3339"
       gradientUnits="userSpaceOnUse"
       gradientTransform="translate(0.04225159,11.549439)"
       spreadMethod="reflect" />
    <linearGradient
       x1="142.95775"
       y1="98.950562"
       x2="148.95775"
       y2="98.950562"
       id="linearGradient3556"
       xlink:href="#linearGradient3355"
       gradientUnits="userSpaceOnUse"
       gradientTransform="translate(0.04225159,12.549439)"
       spreadMethod="reflect" />
    <linearGradient
       x1="137"
       y1="106"
       x2="139.03125"
       y2="106"
       id="linearGradient3558"
       xlink:href="#linearGradient3439"
       gradientUnits="userSpaceOnUse"
       spreadMethod="repeat" />
    <linearGradient
       id="linearGradient3439">
      <stop
         id="stop3441"
         style="stop-color:#3d3d3d;stop-opacity:1"
         offset="0" />
      <stop
         id="stop3443"
         style="stop-color:#ffffff;stop-opacity:1"
         offset="1" />
    </linearGradient>
    <filter
       x="-1.03496"
       y="-0.13573832"
       width="3.06992"
       height="1.2714766"
       color-interpolation-filters="sRGB"
       id="filter3451">
      <feGaussianBlur
         stdDeviation="0.9498173"
         id="feGaussianBlur3453" />
    </filter>
    <filter
       x="-0.93333158"
       y="-0.13770466"
       width="2.8666632"
       height="1.2754093"
       color-interpolation-filters="sRGB"
       id="filter3457">
      <feGaussianBlur
         stdDeviation="0.92807767"
         id="feGaussianBlur3459" />
    </filter>
  </defs>
  <g
     id="g1803"
     style="display:inline;fill:#3b0080;enable-background:new;fill-opacity:1"
     transform="matrix(0.59743112,0,0,0.59743112,-38.030082,-45.497971)">
    <path
       inkscape:connector-curvature="0"
       style="color:#000000;font-style:normal;font-variant:normal;font-weight:normal;font-stretch:normal;line-height:normal;font-family:sans-serif;-inkscape-font-specification:sans-serif;text-indent:0;text-align:start;text-decoration:none;text-decoration-line:none;letter-spacing:normal;word-spacing:normal;text-transform:none;writing-mode:lr-tb;direction:ltr;baseline-shift:baseline;text-anchor:start;display:inline;overflow:visible;visibility:visible;opacity:0.2;fill:#3b0080;fill-opacity:1;fill-rule:nonzero;stroke:none;stroke-width:8;marker:none;enable-background:new"
       d="M 143.05738,82.005054 C 118.85506,81.817497 98.885809,86.848809 88.065959,99.792716 v 0.004 c -5.74735,6.875734 -9.39393,16.359704 -11.0429,26.501424 v 0.004 c -1.63482,10.07106 -1.85416,29.61473 0.0313,39.46244 3.42876,17.90819 12.95937,30.72817 28.235561,36.88667 l -0.82206,-0.33273 0.0822,8.21271 c 0.006,0.62759 0.0866,1.25441 0.23878,1.8633 l -0.22704,-0.916 0.12527,12.61656 c 0.0325,3.16323 2.12404,6.20688 5.0654,7.37108 2.94139,1.1642 6.5526,0.37774 8.74117,-1.90638 l 1.43664,-1.50318 c 1.08636,-1.13428 4.68927,-5.02652 8.55327,-9.22266 3.84692,-4.17753 8.1065,-8.79011 9.38705,-10.16605 l 0.11745,-0.12526 7.95043,-0.19962 c 12.89865,-0.32658 20.09915,-1.24803 30.55687,-3.9302 9.47185,-2.42937 16.14404,-5.6367 21.47907,-10.90982 7.24623,-7.16186 11.35863,-16.44291 13.25072,-28.43519 v -0.004 c 0.82863,-5.26096 1.06672,-12.93533 1.05691,-20.72749 -0.01,-7.79215 -0.1419,-14.69603 -1.16652,-19.73317 -1.43424,-7.05019 -3.67863,-14.04698 -6.60775,-19.3026 -4.38513,-7.868194 -11.87971,-13.662104 -21.34597,-17.286597 -9.46627,-3.624494 -21.03255,-5.403905 -35.20734,-5.903122 -1.64965,-0.0581 -3.28361,-0.0932 -4.89709,-0.105683 z m -0.0235,8.024803 c 1.52493,0.0058 3.07156,0.03874 4.63872,0.09394 27.27222,0.960494 43.11426,7.025719 49.83208,19.079433 2.17549,3.90345 4.46816,10.67434 5.75436,16.99693 1.32084,6.49298 1.34762,29.35723 0.0469,37.61479 -1.73655,11.0065 -4.9512,18.04099 -10.96461,23.98438 -4.30882,4.25881 -8.97999,6.57477 -17.83855,8.84686 -10.0831,2.5861 -16.13149,3.35974 -28.76794,3.67965 l -11.32085,0.2897 -2.41134,2.5914 c -1.32659,1.4254 -5.56611,6.01405 -9.41838,10.19737 -3.8523,4.18342 -7.65194,8.2825 -8.44366,9.10913 l -1.43664,1.50318 -0.13709,-13.56388 -0.13709,-13.56778 -4.14159,-1.66759 c -13.157891,-5.30455 -20.244601,-14.69886 -23.358031,-30.96006 -1.22908,-6.41947 -1.22619,-29.09348 0.004,-36.6714 1.45119,-8.92523 4.95269,-17.47097 9.28137,-22.6495 7.988131,-9.556299 25.944411,-14.992291 48.818191,-14.906562 z"
       id="path3101"
       sodipodi:nodetypes="cccccsccccccsccscccsccccccssccscssccccccscccccsccss" />
    <path
       id="path3078"
       d="M 143.05738,81.005044 C 118.85506,80.817487 98.885809,85.848799 88.065959,98.792706 v 0.004 c -5.74735,6.875734 -9.39393,16.359704 -11.0429,26.501424 v 0.004 c -1.63482,10.07106 -1.85416,29.61473 0.0313,39.46244 3.42876,17.90819 12.95937,30.72817 28.235561,36.88667 l -0.82206,-0.33273 0.0822,8.21271 c 0.006,0.62759 0.0866,1.25441 0.23878,1.8633 l -0.22704,-0.916 0.12527,12.61656 c 0.0325,3.16323 2.12404,6.20688 5.0654,7.37108 2.94139,1.1642 6.5526,0.37774 8.74117,-1.90638 l 1.43664,-1.50318 c 1.08636,-1.13428 4.68927,-5.02652 8.55327,-9.22266 3.84692,-4.17753 8.1065,-8.79011 9.38705,-10.16605 l 0.11745,-0.12526 7.95043,-0.19962 c 12.89865,-0.32658 20.09915,-1.24803 30.55687,-3.9302 9.47185,-2.42937 16.14404,-5.6367 21.47907,-10.90982 7.24623,-7.16186 11.35863,-16.44291 13.25072,-28.43519 v -0.004 c 0.82863,-5.26096 1.06672,-12.93533 1.05691,-20.72749 -0.01,-7.79215 -0.1419,-14.69603 -1.16652,-19.73317 -1.43424,-7.05019 -3.67863,-14.04698 -6.60775,-19.3026 -4.38513,-7.868198 -11.87971,-13.662104 -21.34597,-17.286597 -9.46627,-3.624494 -21.03255,-5.403905 -35.20734,-5.903122 -1.64965,-0.0581 -3.28361,-0.0932 -4.89709,-0.105683 z m -0.0235,8.024803 c 1.52493,0.0058 3.07156,0.03874 4.63872,0.09394 27.27222,0.960494 43.11426,7.025716 49.83208,19.079433 2.17549,3.90345 4.46816,10.67434 5.75436,16.99693 1.32084,6.49298 1.34762,29.35723 0.0469,37.61479 -1.73655,11.0065 -4.9512,18.04099 -10.96461,23.98438 -4.30882,4.25881 -8.97999,6.57477 -17.83855,8.84686 -10.0831,2.5861 -16.13149,3.35974 -28.76794,3.67965 l -11.32085,0.2897 -2.41134,2.5914 c -1.32659,1.4254 -5.56611,6.01405 -9.41838,10.19737 -3.8523,4.18342 -7.65194,8.2825 -8.44366,9.10913 l -1.43664,1.50318 -0.13709,-13.56388 -0.13709,-13.56778 -4.14159,-1.66759 C 95.130309,188.91281 88.043599,179.5185 84.930169,163.2573 c -1.22908,-6.41947 -1.22619,-29.09348 0.004,-36.6714 1.45119,-8.92523 4.95269,-17.47097 9.28137,-22.6495 7.988131,-9.556299 25.944411,-14.992291 48.818191,-14.906562 z"
       style="color:#000000;font-style:normal;font-variant:normal;font-weight:normal;font-stretch:normal;line-height:normal;font-family:sans-serif;-inkscape-font-specification:sans-serif;text-indent:0;text-align:start;text-decoration:none;text-decoration-line:none;letter-spacing:normal;word-spacing:normal;text-transform:none;writing-mode:lr-tb;direction:ltr;baseline-shift:baseline;text-anchor:start;display:inline;overflow:visible;visibility:visible;fill:#3b0080;fill-opacity:1;fill-rule:nonzero;stroke:none;stroke-width:8;marker:none;enable-background:new"
       inkscape:connector-curvature="0"
       sodipodi:nodetypes="cccccsccccccsccscccsccccccssccscssccccccscccccsccss" />
    <g
       fill="#808080"
       id="g8"
       transform="matrix(5.7410199,0,0,5.7410199,98.071841,91.247498)"
       style="fill:#3b0080;fill-opacity:1">
      <path
         d="m 8,12 c -2.216,0 -4,1.784 -4,4 h 1 c 0,-1.662 1.338,-3 3,-3 h 4 c 1.662,0 3,1.338 3,3 h 1 c 0,-2.216 -1.784,-4 -4,-4 z"
         id="path2"
         style="fill:#3b0080;fill-opacity:1" />
      <path
         d="M 10,4.002 C 9.54065,4.002 9.10308,4.0873 8.7012,4.25982 8.30165,4.42406 7.94906,4.66432 7.6543,4.97661 l -0.006,0.006 C 7.36116,5.29635 7.14011,5.67375 6.98424,6.10171 6.82546,6.53007 6.74986,7.00024 6.74986,7.50211 c 0,0.50876 0.0753,0.98099 0.23438,1.4102 0.15624,0.42152 0.37762,0.79443 0.66406,1.1074 l 0.002,0.002 0.004,0.002 c 0.29405,0.31157 0.64524,0.55682 1.043,0.72851 l 0.002,0.002 0.004,0.002 c 0.40108,0.16427 0.83823,0.24609 1.2969,0.24609 0.45856,0 0.89352,-0.0816 1.2949,-0.24609 v -0.002 c 0.39741,-0.17155 0.74615,-0.41777 1.0332,-0.73047 0.29498,-0.31303 0.52286,-0.68618 0.67969,-1.1094 0.1597,-0.42918 0.23438,-0.90336 0.23438,-1.4121 h 0.008 c 0,-0.50128 -0.0759,-0.96854 -0.23438,-1.3965 C 12.85978,5.67594 12.63383,5.29667 12.33826,4.98275 12.0505,4.66906 11.69843,4.42634 11.29916,4.26205 10.89725,4.08774 10.46003,4.00228 10.00036,4.00228 Z M 9.88672,5.0411 c 0.54235,-0.0425 1.1101,0.10554 1.5176,0.47656 0.76785,0.62626 0.93583,1.7168 0.74804,2.6426 -0.12867,0.83869 -0.78758,1.6012 -1.6328,1.7637 -0.82209,0.1883 -1.767,-0.0641 -2.2617,-0.7793 C 7.72767,8.45293 7.7074,7.52286 7.85943,6.70126 8.07016,5.78121 8.91623,5.00346 9.88673,5.04106 Z"
         color="#000000"
         color-rendering="auto"
         dominant-baseline="auto"
         image-rendering="auto"
         shape-rendering="auto"
         solid-color="#000000"
         style="font-variant-ligatures:normal;font-variant-position:normal;font-variant-caps:normal;font-variant-numeric:normal;font-variant-alternates:normal;font-feature-settings:normal;text-indent:0;text-decoration-line:none;text-decoration-style:solid;text-decoration-color:#000000;text-transform:none;text-orientation:mixed;white-space:normal;shape-padding:0;isolation:auto;mix-blend-mode:normal;fill:#3b0080;fill-opacity:1"
         id="path4" />
      <path
         d="M 6,1.002 C 5.54065,1.002 5.10308,1.0873 4.7012,1.25982 4.30165,1.42406 3.94906,1.66432 3.6543,1.97661 l -0.006,0.006 C 3.36116,2.29635 3.1401,2.67375 2.98424,3.10171 2.82546,3.53007 2.74986,4.00024 2.74986,4.50211 c 0,0.50876 0.0753,0.98099 0.23438,1.4102 0.15624,0.42152 0.37762,0.79443 0.66406,1.1074 l 0.002,0.002 0.004,0.002 c 0.29405,0.31157 0.64524,0.55682 1.043,0.72851 l 0.002,0.002 0.004,0.002 C 5.03718,7.89296 5.40012,7.95994 5.7756,7.98278 5.7666,7.89838 5.7603,7.81369 5.7561,7.72888 5.7454,7.4739 5.7552,7.21842 5.7854,6.9652 5.18671,6.9153 4.6086,6.65161 4.258,6.14489 3.72781,5.45316 3.70751,4.52309 3.85957,3.70149 4.0703,2.78144 4.91637,2.00369 5.88687,2.04129 6.42922,1.99879 6.99697,2.14683 7.40447,2.51785 7.72479,2.7791 7.93537,3.12309 8.06462,3.50027 8.36755,3.33451 8.68821,3.20795 9.0197,3.12332 9.0177,3.11732 9.0177,3.11132 9.0157,3.10572 8.8595,2.67591 8.63354,2.29664 8.33797,1.98272 8.05021,1.66903 7.69814,1.42631 7.29887,1.26202 6.89696,1.08771 6.45974,1.00225 6.00007,1.00225 Z M 4,9 C 1.784,9 0,10.784 0,13 v 1 h 1 l -10e-6,-1 c -1e-5,-1.662 1.338,-3 3,-3 h 2.4707 C 6.27449,9.68877 6.11571,9.35284 5.99804,9 Z"
         opacity="0.5"
         id="path6"
         style="fill:#3b0080;fill-opacity:1" />
    </g>
  </g>
</svg>
