<?xml version="1.0" encoding="UTF-8" standalone="no"?>
<svg
   width="16"
   height="16"
   version="1.1"
   id="svg4"
   sodipodi:docname="jargonaut-status-msg-symbolic.svg"
   inkscape:version="1.1.2 (0a00cf5339, 2022-02-04)"
   xmlns:inkscape="http://www.inkscape.org/namespaces/inkscape"
   xmlns:sodipodi="http://sodipodi.sourceforge.net/DTD/sodipodi-0.dtd"
   xmlns="http://www.w3.org/2000/svg"
   xmlns:svg="http://www.w3.org/2000/svg">
  <defs
     id="defs8" />
  <sodipodi:namedview
     id="namedview6"
     pagecolor="#ffffff"
     bordercolor="#666666"
     borderopacity="1.0"
     inkscape:pageshadow="2"
     inkscape:pageopacity="0.0"
     inkscape:pagecheckerboard="0"
     showgrid="false"
     inkscape:zoom="54.4375"
     inkscape:cx="7.9908152"
     inkscape:cy="7.9908152"
     inkscape:window-width="2560"
     inkscape:window-height="1348"
     inkscape:window-x="0"
     inkscape:window-y="0"
     inkscape:window-maximized="1"
     inkscape:current-layer="svg4" />
  <path
     id="path2"
     style="stroke-width:1.14286;fill:#bebebe;fill-opacity:1"
     d="M 2.8574219 0 C 1.2745654 2.9605947e-16 0 1.2745654 0 2.8574219 L 0 8.5722656 A 2.8411418 2.8411418 0 0 0 2.2851562 11.357422 L 2.2851562 16 L 5.8574219 11.427734 L 9.3320312 11.427734 A 4 4 0 0 1 15.623047 9.9902344 C 15.861779 9.5724087 16 9.0898398 16 8.5722656 L 16 2.8574219 A 2.8514275 2.8514275 0 0 0 13.142578 0 L 2.8574219 0 z " />
  <path
     class="warning"
     id="path4-7-9"
     style="color:#bebebe;overflow:visible;isolation:auto;mix-blend-mode:normal;fill:#f57900;fill-opacity:1;stroke-width:1.2;marker:none;enable-background:new"
     overflow="visible"
     d="m 15.999999,13.002449 a 3,3 0 0 1 -5.999998,0 3,3 0 1 1 5.999998,0 z" />
</svg>
