<?xml version="1.0" encoding="UTF-8" standalone="no"?>
<!-- Created with Inkscape (http://www.inkscape.org/) -->

<svg
   viewBox="0 0 16 16"
   version="1.1"
   id="svg37"
   sodipodi:docname="jargonaut-symbolic.svg"
   width="16"
   height="16"
   inkscape:version="1.1.2 (0a00cf5339, 2022-02-04)"
   xmlns:inkscape="http://www.inkscape.org/namespaces/inkscape"
   xmlns:sodipodi="http://sodipodi.sourceforge.net/DTD/sodipodi-0.dtd"
   xmlns="http://www.w3.org/2000/svg"
   xmlns:svg="http://www.w3.org/2000/svg">
  <sodipodi:namedview
     id="namedview39"
     pagecolor="#505050"
     bordercolor="#ffffff"
     borderopacity="1"
     inkscape:showpageshadow="0"
     inkscape:pageopacity="0"
     inkscape:pagecheckerboard="1"
     inkscape:deskcolor="#505050"
     showgrid="true"
     inkscape:zoom="12.125913"
     inkscape:cx="-4.9480811"
     inkscape:cy="25.070277"
     inkscape:window-width="2560"
     inkscape:window-height="1348"
     inkscape:window-x="0"
     inkscape:window-y="0"
     inkscape:window-maximized="1"
     inkscape:current-layer="g35"
     inkscape:pageshadow="2">
    <inkscape:grid
       type="xygrid"
       id="grid7688"
       originx="0"
       originy="0"
       spacingy="1"
       spacingx="1"
       units="px"
       visible="true" />
  </sodipodi:namedview>
  <defs
     id="defs7">
    <linearGradient
       id="linearGradient3764"
       x1="1"
       x2="47"
       gradientUnits="userSpaceOnUse"
       gradientTransform="rotate(-90,23.999998,24)">
      <stop
         style="stop-color:#333;stop-opacity:1"
         id="stop2" />
      <stop
         offset="1"
         style="stop-color:#3d3d3d;stop-opacity:1"
         id="stop4" />
    </linearGradient>
  </defs>
  <g
     id="g35"
     transform="matrix(1.1962617,0,0,-1.1962617,-13.475664,44.261683)"
     style="fill:#4d4d4d">
    <g
       id="g1803"
       style="display:inline;fill:#bfbfbf;fill-opacity:1;enable-background:new"
       transform="matrix(0.0885817,0,0,-0.0885817,5.1965477,44.175536)">
      <path
         inkscape:connector-curvature="0"
         style="color:#000000;font-style:normal;font-variant:normal;font-weight:normal;font-stretch:normal;line-height:normal;font-family:sans-serif;-inkscape-font-specification:sans-serif;text-indent:0;text-align:start;text-decoration:none;text-decoration-line:none;letter-spacing:normal;word-spacing:normal;text-transform:none;writing-mode:lr-tb;direction:ltr;baseline-shift:baseline;text-anchor:start;display:inline;overflow:visible;visibility:visible;opacity:0.2;fill:#bfbfbf;fill-opacity:1;fill-rule:nonzero;stroke:none;stroke-width:8;marker:none;enable-background:new"
         d="M 143.05738,82.005054 C 118.85506,81.817497 98.885809,86.848809 88.065959,99.792716 v 0.004 c -5.74735,6.875734 -9.39393,16.359704 -11.0429,26.501424 v 0.004 c -1.63482,10.07106 -1.85416,29.61473 0.0313,39.46244 3.42876,17.90819 12.95937,30.72817 28.235561,36.88667 l -0.82206,-0.33273 0.0822,8.21271 c 0.006,0.62759 0.0866,1.25441 0.23878,1.8633 l -0.22704,-0.916 0.12527,12.61656 c 0.0325,3.16323 2.12404,6.20688 5.0654,7.37108 2.94139,1.1642 6.5526,0.37774 8.74117,-1.90638 l 1.43664,-1.50318 c 1.08636,-1.13428 4.68927,-5.02652 8.55327,-9.22266 3.84692,-4.17753 8.1065,-8.79011 9.38705,-10.16605 l 0.11745,-0.12526 7.95043,-0.19962 c 12.89865,-0.32658 20.09915,-1.24803 30.55687,-3.9302 9.47185,-2.42937 16.14404,-5.6367 21.47907,-10.90982 7.24623,-7.16186 11.35863,-16.44291 13.25072,-28.43519 v -0.004 c 0.82863,-5.26096 1.06672,-12.93533 1.05691,-20.72749 -0.01,-7.79215 -0.1419,-14.69603 -1.16652,-19.73317 -1.43424,-7.05019 -3.67863,-14.04698 -6.60775,-19.3026 -4.38513,-7.868194 -11.87971,-13.662104 -21.34597,-17.286597 -9.46627,-3.624494 -21.03255,-5.403905 -35.20734,-5.903122 -1.64965,-0.0581 -3.28361,-0.0932 -4.89709,-0.105683 z m -0.0235,8.024803 c 1.52493,0.0058 3.07156,0.03874 4.63872,0.09394 27.27222,0.960494 43.11426,7.025719 49.83208,19.079433 2.17549,3.90345 4.46816,10.67434 5.75436,16.99693 1.32084,6.49298 1.34762,29.35723 0.0469,37.61479 -1.73655,11.0065 -4.9512,18.04099 -10.96461,23.98438 -4.30882,4.25881 -8.97999,6.57477 -17.83855,8.84686 -10.0831,2.5861 -16.13149,3.35974 -28.76794,3.67965 l -11.32085,0.2897 -2.41134,2.5914 c -1.32659,1.4254 -5.56611,6.01405 -9.41838,10.19737 -3.8523,4.18342 -7.65194,8.2825 -8.44366,9.10913 l -1.43664,1.50318 -0.13709,-13.56388 -0.13709,-13.56778 -4.14159,-1.66759 c -13.157891,-5.30455 -20.244601,-14.69886 -23.358031,-30.96006 -1.22908,-6.41947 -1.22619,-29.09348 0.004,-36.6714 1.45119,-8.92523 4.95269,-17.47097 9.28137,-22.6495 7.988131,-9.556299 25.944411,-14.992291 48.818191,-14.906562 z"
         id="path3101"
         sodipodi:nodetypes="cccccsccccccsccscccsccccccssccscssccccccscccccsccss" />
      <path
         id="path3078"
         d="M 143.05738,81.005044 C 118.85506,80.817487 98.885809,85.848799 88.065959,98.792706 v 0.004 c -5.74735,6.875734 -9.39393,16.359704 -11.0429,26.501424 v 0.004 c -1.63482,10.07106 -1.85416,29.61473 0.0313,39.46244 3.42876,17.90819 12.95937,30.72817 28.235561,36.88667 l -0.82206,-0.33273 0.0822,8.21271 c 0.006,0.62759 0.0866,1.25441 0.23878,1.8633 l -0.22704,-0.916 0.12527,12.61656 c 0.0325,3.16323 2.12404,6.20688 5.0654,7.37108 2.94139,1.1642 6.5526,0.37774 8.74117,-1.90638 l 1.43664,-1.50318 c 1.08636,-1.13428 4.68927,-5.02652 8.55327,-9.22266 3.84692,-4.17753 8.1065,-8.79011 9.38705,-10.16605 l 0.11745,-0.12526 7.95043,-0.19962 c 12.89865,-0.32658 20.09915,-1.24803 30.55687,-3.9302 9.47185,-2.42937 16.14404,-5.6367 21.47907,-10.90982 7.24623,-7.16186 11.35863,-16.44291 13.25072,-28.43519 v -0.004 c 0.82863,-5.26096 1.06672,-12.93533 1.05691,-20.72749 -0.01,-7.79215 -0.1419,-14.69603 -1.16652,-19.73317 -1.43424,-7.05019 -3.67863,-14.04698 -6.60775,-19.3026 -4.38513,-7.868198 -11.87971,-13.662104 -21.34597,-17.286597 -9.46627,-3.624494 -21.03255,-5.403905 -35.20734,-5.903122 -1.64965,-0.0581 -3.28361,-0.0932 -4.89709,-0.105683 z m -0.0235,8.024803 c 1.52493,0.0058 3.07156,0.03874 4.63872,0.09394 27.27222,0.960494 43.11426,7.025716 49.83208,19.079433 2.17549,3.90345 4.46816,10.67434 5.75436,16.99693 1.32084,6.49298 1.34762,29.35723 0.0469,37.61479 -1.73655,11.0065 -4.9512,18.04099 -10.96461,23.98438 -4.30882,4.25881 -8.97999,6.57477 -17.83855,8.84686 -10.0831,2.5861 -16.13149,3.35974 -28.76794,3.67965 l -11.32085,0.2897 -2.41134,2.5914 c -1.32659,1.4254 -5.56611,6.01405 -9.41838,10.19737 -3.8523,4.18342 -7.65194,8.2825 -8.44366,9.10913 l -1.43664,1.50318 -0.13709,-13.56388 -0.13709,-13.56778 -4.14159,-1.66759 C 95.130309,188.91281 88.043599,179.5185 84.930169,163.2573 c -1.22908,-6.41947 -1.22619,-29.09348 0.004,-36.6714 1.45119,-8.92523 4.95269,-17.47097 9.28137,-22.6495 7.988131,-9.556299 25.944411,-14.992291 48.818191,-14.906562 z"
         style="color:#000000;font-style:normal;font-variant:normal;font-weight:normal;font-stretch:normal;line-height:normal;font-family:sans-serif;-inkscape-font-specification:sans-serif;text-indent:0;text-align:start;text-decoration:none;text-decoration-line:none;letter-spacing:normal;word-spacing:normal;text-transform:none;writing-mode:lr-tb;direction:ltr;baseline-shift:baseline;text-anchor:start;display:inline;overflow:visible;visibility:visible;fill:#bfbfbf;fill-opacity:1;fill-rule:nonzero;stroke:none;stroke-width:8;marker:none;enable-background:new"
         inkscape:connector-curvature="0"
         sodipodi:nodetypes="cccccsccccccsccscccsccccccssccscssccccccscccccsccss" />
      <g
         fill="#808080"
         id="g8"
         transform="matrix(5.7410199,0,0,5.7410199,98.071841,91.247498)"
         style="fill:#bfbfbf;fill-opacity:1">
        <path
           d="m 8,12 c -2.216,0 -4,1.784 -4,4 h 1 c 0,-1.662 1.338,-3 3,-3 h 4 c 1.662,0 3,1.338 3,3 h 1 c 0,-2.216 -1.784,-4 -4,-4 z"
           id="path2"
           style="fill:#bfbfbf;fill-opacity:1" />
        <path
           d="M 10,4.002 C 9.54065,4.002 9.10308,4.0873 8.7012,4.25982 8.30165,4.42406 7.94906,4.66432 7.6543,4.97661 l -0.006,0.006 C 7.36116,5.29635 7.14011,5.67375 6.98424,6.10171 6.82546,6.53007 6.74986,7.00024 6.74986,7.50211 c 0,0.50876 0.0753,0.98099 0.23438,1.4102 0.15624,0.42152 0.37762,0.79443 0.66406,1.1074 l 0.002,0.002 0.004,0.002 c 0.29405,0.31157 0.64524,0.55682 1.043,0.72851 l 0.002,0.002 0.004,0.002 c 0.40108,0.16427 0.83823,0.24609 1.2969,0.24609 0.45856,0 0.89352,-0.0816 1.2949,-0.24609 v -0.002 c 0.39741,-0.17155 0.74615,-0.41777 1.0332,-0.73047 0.29498,-0.31303 0.52286,-0.68618 0.67969,-1.1094 0.1597,-0.42918 0.23438,-0.90336 0.23438,-1.4121 h 0.008 c 0,-0.50128 -0.0759,-0.96854 -0.23438,-1.3965 C 12.85978,5.67594 12.63383,5.29667 12.33826,4.98275 12.0505,4.66906 11.69843,4.42634 11.29916,4.26205 10.89725,4.08774 10.46003,4.00228 10.00036,4.00228 Z M 9.88672,5.0411 c 0.54235,-0.0425 1.1101,0.10554 1.5176,0.47656 0.76785,0.62626 0.93583,1.7168 0.74804,2.6426 -0.12867,0.83869 -0.78758,1.6012 -1.6328,1.7637 -0.82209,0.1883 -1.767,-0.0641 -2.2617,-0.7793 C 7.72767,8.45293 7.7074,7.52286 7.85943,6.70126 8.07016,5.78121 8.91623,5.00346 9.88673,5.04106 Z"
           color="#000000"
           color-rendering="auto"
           dominant-baseline="auto"
           image-rendering="auto"
           shape-rendering="auto"
           solid-color="#000000"
           style="font-variant-ligatures:normal;font-variant-position:normal;font-variant-caps:normal;font-variant-numeric:normal;font-variant-alternates:normal;font-feature-settings:normal;text-indent:0;text-decoration-line:none;text-decoration-style:solid;text-decoration-color:#000000;text-transform:none;text-orientation:mixed;white-space:normal;shape-padding:0;isolation:auto;mix-blend-mode:normal;fill:#bfbfbf;fill-opacity:1"
           id="path4" />
        <path
           d="M 6,1.002 C 5.54065,1.002 5.10308,1.0873 4.7012,1.25982 4.30165,1.42406 3.94906,1.66432 3.6543,1.97661 l -0.006,0.006 C 3.36116,2.29635 3.1401,2.67375 2.98424,3.10171 2.82546,3.53007 2.74986,4.00024 2.74986,4.50211 c 0,0.50876 0.0753,0.98099 0.23438,1.4102 0.15624,0.42152 0.37762,0.79443 0.66406,1.1074 l 0.002,0.002 0.004,0.002 c 0.29405,0.31157 0.64524,0.55682 1.043,0.72851 l 0.002,0.002 0.004,0.002 C 5.03718,7.89296 5.40012,7.95994 5.7756,7.98278 5.7666,7.89838 5.7603,7.81369 5.7561,7.72888 5.7454,7.4739 5.7552,7.21842 5.7854,6.9652 5.18671,6.9153 4.6086,6.65161 4.258,6.14489 3.72781,5.45316 3.70751,4.52309 3.85957,3.70149 4.0703,2.78144 4.91637,2.00369 5.88687,2.04129 6.42922,1.99879 6.99697,2.14683 7.40447,2.51785 7.72479,2.7791 7.93537,3.12309 8.06462,3.50027 8.36755,3.33451 8.68821,3.20795 9.0197,3.12332 9.0177,3.11732 9.0177,3.11132 9.0157,3.10572 8.8595,2.67591 8.63354,2.29664 8.33797,1.98272 8.05021,1.66903 7.69814,1.42631 7.29887,1.26202 6.89696,1.08771 6.45974,1.00225 6.00007,1.00225 Z M 4,9 C 1.784,9 0,10.784 0,13 v 1 h 1 l -10e-6,-1 c -1e-5,-1.662 1.338,-3 3,-3 h 2.4707 C 6.27449,9.68877 6.11571,9.35284 5.99804,9 Z"
           opacity="0.5"
           id="path6"
           style="fill:#bfbfbf;fill-opacity:1" />
      </g>
    </g>
  </g>
</svg>
